<?xml version="1.0" encoding="UTF-8"?>
<svg xmlns="http://www.w3.org/2000/svg" viewBox="0 0 120 120" width="120" height="120" aria-label="ICONS">
  <title>ICONS</title>
  
  <path d="M 64 19 C 69 49 80 60 110 65 C 80 70 69 81 64 111 C 59 81 48 70 18 65 C 48 60 59 49 64 19 Z" fill="#0a0a0a"></path>
  
  <path d="M 60 14 C 65 44 76 55 106 60 C 76 65 65 76 60 106 C 55 76 44 65 14 60 C 44 55 55 44 60 14 Z" fill="#F5C518" stroke="#0a0a0a" stroke-width="5" stroke-linejoin="round"></path>
  
  <ellipse cx="48" cy="40" rx="6" ry="9" fill="#ffffff" opacity="0.75" transform="rotate(-25 48 40)"></ellipse>
</svg>