<?xml version="1.0" encoding="UTF-8"?>
<svg version="1.1" xmlns="http://www.w3.org/2000/svg" width="500" height="500">
<path d="M0 0 C0.87869751 -0.00058411 1.75739502 -0.00116821 2.66271973 -0.00177002 C5.55241093 0.00100541 8.44105653 0.03207163 11.33056641 0.06347656 C13.3398075 0.07094088 15.3490559 0.07663291 17.35830688 0.08062744 C22.63564301 0.09586869 27.91253579 0.13513772 33.18969727 0.17944336 C38.57904056 0.2204285 43.96845579 0.2386454 49.35791016 0.25878906 C59.92451073 0.30163325 70.49078289 0.36986648 81.05712891 0.45410156 C81.05712891 1.44410156 81.05712891 2.43410156 81.05712891 3.45410156 C76.71427176 7.45410156 76.71427176 7.45410156 74.05712891 7.45410156 C74.05712891 8.11410156 74.05712891 8.77410156 74.05712891 9.45410156 C72.65869141 10.75878906 72.65869141 10.75878906 70.68212891 12.32910156 C50.52173918 29.48688005 38.01902352 56.60154822 35.30322266 82.72363281 C33.38095827 111.86271987 40.61926884 138.16163864 57.49072266 162.09863281 C59.05712891 164.45410156 59.05712891 164.45410156 60.05712891 167.45410156 C60.71712891 167.45410156 61.37712891 167.45410156 62.05712891 167.45410156 C63.53759766 168.95800781 63.53759766 168.95800781 65.24462891 171.01660156 C80.99110876 189.40359542 101.24539363 201.75976491 124.05712891 209.45410156 C125.36015851 209.96078935 126.66221618 210.46998248 127.96337891 210.98144531 C132.90630551 212.85232418 137.98443164 213.89887661 143.14111328 215.00292969 C146.6207852 215.77722666 149.05765244 216.45445059 152.05712891 218.45410156 C149.24301489 219.86115857 146.92475179 219.56840428 143.77604675 219.55657959 C142.79872266 219.55491094 142.79872266 219.55491094 141.80165464 219.55320859 C139.6083671 219.54815122 137.41518152 219.535795 135.22192383 219.5234375 C133.65340804 219.51820666 132.08489087 219.51337921 130.51637268 219.50892639 C126.24766422 219.49525435 121.97901455 219.47480723 117.71034408 219.45236111 C115.0445483 219.43851267 112.37874946 219.42587164 109.71294594 219.41361237 C101.37550331 219.37498371 93.03809588 219.33234631 84.70070475 219.28383708 C75.07053547 219.22782141 65.44042517 219.18479665 55.81014556 219.15315604 C48.3705296 219.12794778 40.93102422 219.09134912 33.49150354 219.04607034 C29.04632504 219.01926031 24.60124659 218.99726704 20.15599632 218.98705292 C15.97395002 218.97711612 11.79222145 218.95304725 7.61031151 218.91811943 C6.07566931 218.90772794 4.54098307 218.90241136 3.00630569 218.90255165 C0.91023158 218.90195983 -1.18491324 218.88304084 -3.28083801 218.85955811 C-4.45352643 218.85365032 -5.62621485 218.84774254 -6.83443928 218.84165573 C-10.39376811 218.39788446 -12.1643008 217.71703827 -14.94287109 215.45410156 C-18.04691112 210.82073457 -18.37177214 206.59960135 -18.32382202 201.17344666 C-18.32850199 200.35513746 -18.33318197 199.53682827 -18.33800375 198.69372183 C-18.34994108 195.95995486 -18.34050155 193.22669035 -18.33105469 190.49291992 C-18.33512092 188.52972624 -18.34046308 186.56653484 -18.34698486 184.60334778 C-18.36065721 179.27703383 -18.35536033 173.95089427 -18.34584761 168.62457728 C-18.33825171 163.05086596 -18.34529633 157.47716955 -18.3500061 151.90345764 C-18.35546339 142.54457925 -18.34827223 133.1857719 -18.33398438 123.8269043 C-18.31765318 113.00457538 -18.32294993 102.18241597 -18.33946359 91.36009115 C-18.3530735 82.06908368 -18.35500068 72.77812727 -18.34714758 63.48711306 C-18.34246897 57.93756205 -18.34185154 52.38809075 -18.35175705 46.83854485 C-18.36041735 41.62233854 -18.35442184 36.40635103 -18.33707428 31.19016838 C-18.33310465 29.27493656 -18.33425161 27.35968635 -18.34086227 25.44446182 C-18.34904888 22.83198283 -18.33879127 20.22020691 -18.32382202 17.60777283 C-18.33051419 16.84824009 -18.33720635 16.08870736 -18.34410131 15.30615848 C-18.29434438 10.83539719 -17.68149462 8.01520338 -14.94287109 4.45410156 C-10.02847336 0.18369402 -6.20348907 -0.10879705 0 0 Z " fill="#EEEAE1" transform="translate(163.94287109375,138.5458984375)"/>
<path d="M0 0 C9.03490167 8.06003752 14.23229761 19.66194735 15.21484375 31.61328125 C15.65896219 44.17295066 11.37044038 56.02429905 3.375 65.6875 C-4.34015129 73.89665345 -14.47582167 79.81115198 -25.8671875 80.43359375 C-27.53630004 80.45661826 -29.20584815 80.45747248 -30.875 80.4375 C-32.18827271 80.42831543 -32.18827271 80.42831543 -33.52807617 80.41894531 C-43.28938557 80.18353668 -50.78995024 77.10847541 -59 72 C-59 71.34 -59 70.68 -59 70 C-59.7528125 69.75121094 -60.505625 69.50242187 -61.28125 69.24609375 C-68.46950582 65.9514765 -72.01476776 57.46324122 -75.0546875 50.578125 C-78.82565779 40.29366057 -78.57505402 25.99606142 -74 16 C-67.28067337 2.37295441 -57.56964679 -4.3514812 -43.8125 -9.87890625 C-28.57314605 -14.57551749 -12.15845973 -9.50428553 0 0 Z " fill="#ECE8E0" transform="translate(340,156)"/>
<path d="M0 0 C2.60131241 2.17784295 3.49950627 3.18475203 4.6875 6.25 C5.01342984 10.92166102 4.28036595 14.38764953 1.625 18.25 C-2.06527505 20.76252769 -4.871318 21.5286624 -9.3125 21.25 C-13.66502068 19.93603149 -14.94380379 18.88035158 -17.25 14.9375 C-18.68861174 9.94467103 -18.21201699 7.13470226 -16 2.5 C-11.86505345 -3.01326206 -5.90715608 -3.1207617 0 0 Z " fill="#EBE316" transform="translate(350.3125,282.75)"/>
<path d="M0 0 C6.48472993 0.73690113 12.69239743 2.35318751 19 4 C17 6 17 6 14.25512505 6.23047829 C13.07707361 6.22126036 11.89902218 6.21204243 10.68527222 6.20254517 C9.70265638 6.19898311 9.70265638 6.19898311 8.70018971 6.1953491 C6.4951053 6.18489426 4.29041606 6.16001254 2.08544922 6.13525391 C0.50882506 6.12483261 -1.06780517 6.11529649 -2.6444397 6.10658264 C-6.93354327 6.0803548 -11.22245659 6.04168994 -15.51144266 6.00085878 C-19.99039649 5.96031213 -24.4694236 5.93111061 -28.94845581 5.90072632 C-37.4341303 5.84142772 -45.91968868 5.7718668 -54.40525329 5.69865549 C-64.06406761 5.61581862 -73.72295551 5.54436639 -83.38186669 5.47388959 C-103.25468624 5.32863035 -123.12736921 5.16901187 -143 5 C-143 4.67 -143 4.34 -143 4 C-95.48 3.67 -47.96 3.34 1 3 C1.33 2.34 1.66 1.68 2 1 C1.01 0.505 1.01 0.505 0 0 Z " fill="#B4B3AF" transform="translate(297,352)"/>
<path d="M0 0 C1 2 1 2 0.875 5.5 C0.91625 6.655 0.9575 7.81 1 9 C1.99 9.66 2.98 10.32 4 11 C4 11.99 4 12.98 4 14 C5.77155654 13.88570603 7.54226229 13.75816963 9.3125 13.625 C10.29863281 13.55539062 11.28476562 13.48578125 12.30078125 13.4140625 C15.21528433 13.16134528 15.21528433 13.16134528 18 11 C17.02702707 13.65356255 16.30781348 14.80987991 13.875 16.3125 C10.02653007 17.23278629 6.80337356 17.10034707 3 16 C-0.32450983 13.55036118 -1.95568219 10.98739527 -3 7 C-2.75 3.75 -2.75 3.75 -2 1 C-1.34 0.67 -0.68 0.34 0 0 Z " fill="#ABA729" transform="translate(335,287)"/>
<path d="M0 0 C6.48472993 0.73690113 12.69239743 2.35318751 19 4 C18.34 4.66 17.68 5.32 17 6 C16.030625 5.67 15.06125 5.34 14.0625 5 C9.70233163 3.73126248 5.50445434 3.81614472 1 4 C1.33 3.01 1.66 2.02 2 1 C1.34 0.67 0.68 0.34 0 0 Z " fill="#A5A3A0" transform="translate(297,352)"/>
<path d="M0 0 C0.99 0 1.98 0 3 0 C3 0.99 3 1.98 3 3 C4.98 3 6.96 3 9 3 C6.6499811 5.72107452 4.44325025 6.96702492 1 8 C0.01 7.67 -0.98 7.34 -2 7 C-2 6.34 -2 5.68 -2 5 C-1.34 5 -0.68 5 0 5 C0 3.35 0 1.7 0 0 Z " fill="#B5B3AD" transform="translate(324,226)"/>
<path d="M0 0 C1.32 0.33 2.64 0.66 4 1 C2.14285714 8.57142857 2.14285714 8.57142857 -1 11 C-2.1875 8.3125 -2.1875 8.3125 -3 5 C-1.625 2.125 -1.625 2.125 0 0 Z " fill="#C1BFB8" transform="translate(348,204)"/>
<path d="M0 0 C0 0.99 0 1.98 0 3 C-5.21153619 6.25721012 -8.18912837 6.28036155 -14 5 C-14.33 4.34 -14.66 3.68 -15 3 C-13.62714844 2.92652344 -13.62714844 2.92652344 -12.2265625 2.8515625 C-11.03804688 2.77679688 -9.84953125 2.70203125 -8.625 2.625 C-7.44164062 2.55539062 -6.25828125 2.48578125 -5.0390625 2.4140625 C-1.89437681 2.29782654 -1.89437681 2.29782654 0 0 Z " fill="#7A741B" transform="translate(352,298)"/>
<path d="M0 0 C2.84550012 0.66010476 5.52325999 1.51724966 8.25 2.5625 C8.95640625 2.83191406 9.6628125 3.10132813 10.390625 3.37890625 C10.92171875 3.58386719 11.4528125 3.78882813 12 4 C12 4.33 12 4.66 12 5 C9.69 5 7.38 5 5 5 C5 5.66 5 6.32 5 7 C3.0625 6.3125 3.0625 6.3125 1 5 C0.25 2.375 0.25 2.375 0 0 Z M2 3 C2.33 3.66 2.66 4.32 3 5 C3.66 4.34 4.32 3.68 5 3 C4.01 3 3.02 3 2 3 Z " fill="#9E9D97" transform="translate(273,343)"/>
<path d="M0 0 C5.71658336 -0.45732667 8.48649253 0.47726246 13 4 C12.67 4.66 12.34 5.32 12 6 C10.783125 5.525625 9.56625 5.05125 8.3125 4.5625 C5.22731209 3.40075962 2.26878802 2.51074813 -1 2 C-0.67 1.34 -0.34 0.68 0 0 Z " fill="#666512" transform="translate(340,281)"/>
<path d="M0 0 C0.66 0.33 1.32 0.66 2 1 C1.0919838 2.13199353 0.17316174 3.25532363 -0.75 4.375 C-1.26046875 5.00148437 -1.7709375 5.62796875 -2.296875 6.2734375 C-4.08199481 8.08312318 -5.67949644 9.00117455 -8 10 C-6.34908222 5.70761377 -3.26245434 3.1206085 0 0 Z " fill="#696764" transform="translate(280,154)"/>
<path d="M0 0 C1.98 0.99 3.96 1.98 6 3 C4.68 3.99 3.36 4.98 2 6 C1.01 4.68 0.02 3.36 -1 2 C-0.67 1.34 -0.34 0.68 0 0 Z " fill="#AEACA6" transform="translate(331,151)"/>
<path d="M0 0 C1.258125 0.12375 2.51625 0.2475 3.8125 0.375 C4.87404297 0.47941406 4.87404297 0.47941406 5.95703125 0.5859375 C8 1 8 1 11 3 C8.13822943 4.43088528 6.06624227 3.59991697 3 3 C3 2.34 3 1.68 3 1 C2.01 0.67 1.02 0.34 0 0 Z " fill="#535353" transform="translate(305,354)"/>
<path d="M0 0 C0.33 0.99 0.66 1.98 1 3 C-0.375 4.5 -0.375 4.5 -2 6 C-2.66 6 -3.32 6 -4 6 C-4 4.68 -4 3.36 -4 2 C-2.68 1.34 -1.36 0.68 0 0 Z " fill="#EFE832" transform="translate(352,295)"/>
<path d="M0 0 C0.99 0.33 1.98 0.66 3 1 C1.35 2.65 -0.3 4.3 -2 6 C-2.33 4.68 -2.66 3.36 -3 2 C-2.01 1.34 -1.02 0.68 0 0 Z " fill="#9A9996" transform="translate(343,217)"/>
</svg>
